<?xml version="1.0" encoding="UTF-8" standalone="no"?>
<!-- Created with Inkscape (http://www.inkscape.org/) -->

<svg
   xmlns:dc="http://purl.org/dc/elements/1.1/"
   xmlns:cc="http://creativecommons.org/ns#"
   xmlns:rdf="http://www.w3.org/1999/02/22-rdf-syntax-ns#"
   xmlns:svg="http://www.w3.org/2000/svg"
   xmlns="http://www.w3.org/2000/svg"
   xmlns:sodipodi="http://sodipodi.sourceforge.net/DTD/sodipodi-0.dtd"
   xmlns:inkscape="http://www.inkscape.org/namespaces/inkscape"
   width="108px"
   height="108px"
   viewBox="0 0 108 108"
   version="1.1"
   id="SVGRoot"
   inkscape:version="0.92.2 (5c3e80d, 2017-08-06)"
   sodipodi:docname="ic_launcher_foreground_new_path.svg">
  <sodipodi:namedview
     id="base"
     pagecolor="#ffffff"
     bordercolor="#666666"
     borderopacity="1.0"
     inkscape:pageopacity="0.0"
     inkscape:pageshadow="2"
     inkscape:zoom="7.4814815"
     inkscape:cx="39.799345"
     inkscape:cy="56.810191"
     inkscape:document-units="px"
     inkscape:current-layer="layer2"
     showgrid="false"
     inkscape:window-width="1920"
     inkscape:window-height="1001"
     inkscape:window-x="-9"
     inkscape:window-y="-9"
     inkscape:window-maximized="1"
     inkscape:grid-bbox="true"
     inkscape:measure-start="0,0"
     inkscape:measure-end="0,0"
     inkscape:snap-page="true"
     inkscape:snap-bbox="true"
     inkscape:bbox-paths="true"
     inkscape:bbox-nodes="true"
     inkscape:snap-bbox-edge-midpoints="true"
     inkscape:snap-bbox-midpoints="true"
     inkscape:object-paths="true"
     inkscape:snap-intersection-paths="true"
     inkscape:snap-smooth-nodes="true"
     inkscape:snap-midpoints="true"
     inkscape:snap-text-baseline="true"
     inkscape:snap-center="true"
     inkscape:snap-object-midpoints="true" />
  <defs
     id="defs4756" />
  <metadata
     id="metadata4759">
    <rdf:RDF>
      <cc:Work
         rdf:about="">
        <dc:format>image/svg+xml</dc:format>
        <dc:type
           rdf:resource="http://purl.org/dc/dcmitype/StillImage" />
        <dc:title></dc:title>
      </cc:Work>
    </rdf:RDF>
  </metadata>
  <g
     id="layer1"
     inkscape:groupmode="layer"
     inkscape:label="actually availiable"
     style="opacity:0">
    <circle
       style="fill:#0070a3;fill-opacity:1;stroke-width:1.20573747;stroke:#000000;stroke-opacity:1"
       id="path4778"
       cx="54"
       cy="54"
       r="44" />
  </g>
  <g
     inkscape:groupmode="layer"
     id="layer2"
     inkscape:label="icon">
    <path
       style="fill:none;stroke:#fcbe04;stroke-width:4.86666679;stroke-linecap:round;stroke-linejoin:round;stroke-miterlimit:4;stroke-dasharray:19.46666718, 9.73333359, 4.86666679, 9.73333359;stroke-dashoffset:42.97266769;stroke-opacity:1;paint-order:normal"
       d="M 0,108 C 36,72 72,36 108,0"
       id="path5328"
       inkscape:connector-curvature="0" />
    <g
       aria-label="C"
       style="font-style:normal;font-variant:normal;font-weight:bold;font-stretch:normal;font-size:48px;line-height:1.25;font-family:'Fira Code';-inkscape-font-specification:'Fira Code, Bold';font-variant-ligatures:normal;font-variant-caps:normal;font-variant-numeric:normal;font-feature-settings:normal;text-align:start;letter-spacing:0px;word-spacing:0px;writing-mode:lr-tb;text-anchor:start;fill:#fcbe04;fill-opacity:1;stroke:none"
       id="text5332">
      <path
         d="m 38.570139,20.111479 c 3.237415,-0.07111 10.164298,1.231034 10.04638,4.387164 -1.748769,1.718575 -3.037513,5.598512 -5.57938,2.425086 -5.595906,-3.323431 -12.100884,1.777647 -11.73,7.89075 -0.46193,5.083848 -0.09803,12.459667 5.895,13.971 4.230909,2.527299 8.427523,-5.603234 10.670343,-0.534397 3.876001,2.687992 -1.343536,4.93838 -3.926531,5.940772 -7.679483,2.792443 -17.558406,-0.89843 -19.820812,-9.195375 -2.725714,-8.451508 -0.802083,-20.074654 8.307,-23.724 1.939557,-0.800939 4.044005,-1.164535 6.138,-1.161 z"
         id="path5338"
         inkscape:connector-curvature="0" />
    </g>
    <g
       aria-label="D"
       style="font-style:normal;font-variant:normal;font-weight:500;font-stretch:normal;font-size:48px;line-height:1.25;font-family:'Fira Code';-inkscape-font-specification:'Fira Code, Medium';font-variant-ligatures:normal;font-variant-caps:normal;font-variant-numeric:normal;font-feature-settings:normal;text-align:start;letter-spacing:0px;word-spacing:0px;writing-mode:lr-tb;text-anchor:start;fill:#fcbe04;fill-opacity:1;stroke:none"
       id="text5336">
      <path
         d="m 83.806929,69.327208 c 0.2684,5.991331 -1.760133,13.098448 -7.968,15.327 -4.915426,2.134134 -10.357065,1.226873 -15.552,1.425 0,-11.04 0,-22.08 0,-33.12 7.087008,0.09272 15.528699,-1.028073 20.636438,5.00925 2.428312,3.222447 2.844579,7.453831 2.883562,11.35875 z m -5.856,0 c 0.445501,-5.22928 -1.781071,-12.019946 -8.0295,-12.057 -2.261424,-0.135321 -5.070428,-0.676874 -4.0665,2.515993 0,7.356336 0,14.712671 0,22.069007 4.155927,0.287617 9.276143,-0.290417 10.83375,-4.89375 1.012574,-2.405212 1.250678,-5.050274 1.26225,-7.63425 z"
         id="path5341"
         inkscape:connector-curvature="0" />
    </g>
  </g>
</svg>
