<?xml version="1.0" encoding="UTF-8" standalone="no"?>
<!-- Created with Inkscape (http://www.inkscape.org/) -->

<svg
   xmlns:dc="http://purl.org/dc/elements/1.1/"
   xmlns:cc="http://creativecommons.org/ns#"
   xmlns:rdf="http://www.w3.org/1999/02/22-rdf-syntax-ns#"
   xmlns:svg="http://www.w3.org/2000/svg"
   xmlns="http://www.w3.org/2000/svg"
   xmlns:sodipodi="http://sodipodi.sourceforge.net/DTD/sodipodi-0.dtd"
   xmlns:inkscape="http://www.inkscape.org/namespaces/inkscape"
   width="108px"
   height="108px"
   viewBox="0 0 108 108"
   version="1.1"
   id="SVGRoot"
   inkscape:version="0.92.2 (5c3e80d, 2017-08-06)"
   sodipodi:docname="ic_launcher_foreground.svg">
  <sodipodi:namedview
     id="base"
     pagecolor="#ffffff"
     bordercolor="#666666"
     borderopacity="1.0"
     inkscape:pageopacity="0.0"
     inkscape:pageshadow="2"
     inkscape:zoom="7.4814815"
     inkscape:cx="49.388614"
     inkscape:cy="49.460461"
     inkscape:document-units="px"
     inkscape:current-layer="layer1"
     showgrid="false"
     inkscape:window-width="1920"
     inkscape:window-height="1001"
     inkscape:window-x="-9"
     inkscape:window-y="-9"
     inkscape:window-maximized="1"
     inkscape:grid-bbox="true"
     inkscape:snap-bbox="false"
     inkscape:snap-grids="true" />
  <defs
     id="defs3699">
    <inkscape:path-effect
       effect="envelope"
       id="path-effect4577"
       is_visible="true"
       yy="true"
       xx="true"
       bendpath1="M 52.076281,19.382308 H 57.67628"
       bendpath2="M 57.67628,19.382308 V 87.254305"
       bendpath3="M 52.076281,87.254305 H 57.67628"
       bendpath4="M 52.076281,19.382308 V 87.254305" />
    <inkscape:path-effect
       effect="rough_hatches"
       id="path-effect4573"
       is_visible="true"
       direction="54.876281,48.318306 , 1.3999998,0"
       dist_rdm="75;1"
       growth="0"
       do_bend="true"
       bender="54.876281,53.318306 , 5,0"
       bottom_edge_variation="6.7871997;1"
       top_edge_variation="6.7871997;1"
       bottom_tgt_variation="0;1"
       top_tgt_variation="0;1"
       scale_bf="1"
       scale_bb="1"
       scale_tf="1"
       scale_tb="1"
       top_smth_variation="0;1"
       bottom_smth_variation="0;1"
       fat_output="true"
       stroke_width_top="1"
       stroke_width_bottom="1"
       front_thickness="1"
       back_thickness="0.25" />
    <inkscape:path-effect
       effect="knot"
       id="path-effect4571"
       is_visible="true"
       interruption_width="3"
       prop_to_stroke_width="true"
       add_stroke_width="true"
       add_other_stroke_width="true"
       switcher_size="15"
       crossing_points_vector="" />
    <inkscape:path-effect
       effect="lattice2"
       gridpoint0="52.076281,19.382308"
       gridpoint1="57.67628,19.382308"
       gridpoint2="52.076281,87.254305"
       gridpoint3="57.67628,87.254305"
       gridpoint4="53.476281,19.382308"
       gridpoint5="56.27628,19.382308"
       gridpoint6="53.476281,87.254305"
       gridpoint7="56.27628,87.254305"
       gridpoint8x9="54.876281,19.382308"
       gridpoint10x11="54.876281,87.254305"
       gridpoint12="52.076281,36.350307"
       gridpoint13="57.67628,36.350307"
       gridpoint14="52.076281,70.286306"
       gridpoint15="57.67628,70.286306"
       gridpoint16="53.476281,36.350307"
       gridpoint17="56.27628,36.350307"
       gridpoint18="53.476281,70.286306"
       gridpoint19="56.27628,70.286306"
       gridpoint20x21="54.876281,36.350307"
       gridpoint22x23="54.876281,70.286306"
       gridpoint24x26="52.076281,53.318307"
       gridpoint25x27="57.67628,53.318307"
       gridpoint28x30="53.476281,53.318307"
       gridpoint29x31="56.27628,53.318307"
       gridpoint32x33x34x35="54.876281,53.318307"
       id="path-effect4569"
       is_visible="true"
       horizontal_mirror="false"
       vertical_mirror="false"
       live_update="true" />
  </defs>
  <metadata
     id="metadata3702">
    <rdf:RDF>
      <cc:Work
         rdf:about="">
        <dc:format>image/svg+xml</dc:format>
        <dc:type
           rdf:resource="http://purl.org/dc/dcmitype/StillImage" />
        <dc:title></dc:title>
      </cc:Work>
    </rdf:RDF>
  </metadata>
  <g
     id="layer1"
     inkscape:groupmode="layer"
     inkscape:label="Layer 1">
    <g
       aria-label="C"
       style="font-style:normal;font-variant:normal;font-weight:normal;font-stretch:normal;font-size:64px;line-height:1.25;font-family:'Fira Code';-inkscape-font-specification:'Fira Code';letter-spacing:0px;word-spacing:0px;fill:#fcbe04;fill-opacity:1;stroke:none"
       id="text3717"
       transform="matrix(0.81,0,0,0.81,9.834,9.738084)">
      <path
         d="m 36.88,16.495998 c 4.60443,-0.118336 9.208572,1.389605 12.8,4.288 -1.045333,1.216 -2.090667,2.432 -3.136,3.648 -5.849943,-5.130307 -16.384972,-4.26103 -20.2695,2.876 -2.99508,5.845644 -2.864857,12.806416 -1.75225,19.1285 0.91458,5.78701 5.894755,10.829818 11.92725,10.8105 4.082691,0.761443 8.308802,-2.047188 11.260478,-3.295027 0.870007,1.082675 1.740015,2.165351 2.610022,3.248027 -6.010913,5.703292 -15.948555,6.280234 -22.976,2.176 -7.612991,-4.69499 -9.940582,-14.363914 -9.25625,-22.776 0.295149,-8.174008 4.958674,-16.884792 13.2235,-19.27375 1.798359,-0.564656 3.685212,-0.831902 5.56875,-0.83025 z"
         id="path4544"
         inkscape:connector-curvature="0" />
    </g>
    <g
       aria-label="D"
       style="font-style:normal;font-variant:normal;font-weight:normal;font-stretch:normal;font-size:64px;line-height:1.25;font-family:'Fira Code';-inkscape-font-specification:'Fira Code';letter-spacing:0px;word-spacing:0px;fill:#fcbe04;fill-opacity:1;stroke:none"
       id="text3725"
       transform="matrix(0.81,0,0,0.81,11.347853,12.998616)">
      <path
         d="m 90.08,68.568965 c 0.04497,6.829039 -1.267582,14.958877 -7.625625,18.80925 -4.915603,3.481124 -11.085551,3.6029 -16.867932,3.46275 -1.862148,0 -3.724295,0 -5.586443,0 0,-14.698667 0,-29.397333 0,-44.096 7.436836,0.184646 15.44993,-0.990857 22.122,3.08425 6.706095,3.573463 7.977965,11.872612 7.958,18.73975 z m -5.952,0 c 0.04448,-5.624545 -0.913436,-12.381544 -6.079,-15.655 -3.842963,-2.110574 -8.282701,-1.542792 -12.481,-1.625 0,11.690667 0,23.381333 0,35.072 4.717423,-0.01221 10.002224,0.517607 13.746,-2.989 4.270884,-3.56207 4.736335,-9.640897 4.814,-14.803 z"
         id="path4550"
         inkscape:connector-curvature="0" />
    </g>
    <g
       aria-label="|"
       style="font-style:normal;font-variant:normal;font-weight:normal;font-stretch:normal;font-size:74.66666412px;line-height:1.25;font-family:'Fira Code';-inkscape-font-specification:'Fira Code';letter-spacing:0px;word-spacing:0px;fill:#fcbe04;fill-opacity:1;stroke:none"
       id="text3729"
       transform="matrix(0.74979482,0.30644367,-0.30644367,0.74979482,30.018091,-3.3238214)">
      <path
         d="m 57.67628,87.254305 c -1.866666,0 -3.733333,0 -5.599999,0 0,-22.623999 0,-45.247998 0,-67.871997 1.866666,0 3.733333,0 5.599999,0 0,22.623999 0,45.247998 0,67.871997 z"
         id="path4547"
         inkscape:connector-curvature="0" />
    </g>
  </g>
</svg>
