<?xml version="1.0" encoding="UTF-8" standalone="no"?>
<!-- Created with Inkscape (http://www.inkscape.org/) -->

<svg
   xmlns:dc="http://purl.org/dc/elements/1.1/"
   xmlns:cc="http://creativecommons.org/ns#"
   xmlns:rdf="http://www.w3.org/1999/02/22-rdf-syntax-ns#"
   xmlns:svg="http://www.w3.org/2000/svg"
   xmlns="http://www.w3.org/2000/svg"
   xmlns:sodipodi="http://sodipodi.sourceforge.net/DTD/sodipodi-0.dtd"
   xmlns:inkscape="http://www.inkscape.org/namespaces/inkscape"
   width="128px"
   height="128px"
   viewBox="0 0 128 128"
   version="1.1"
   id="SVGRoot"
   inkscape:version="0.92.3 (2405546, 2018-03-11)"
   sodipodi:docname="newicon_foreground.svg"
   inkscape:export-filename="/home/vinzenz/StudioProjects/CampusDualAndroid2/files/newicon_foreground.svg.png"
   inkscape:export-xdpi="384"
   inkscape:export-ydpi="384">
  <sodipodi:namedview
     id="base"
     pagecolor="#ffffff"
     bordercolor="#666666"
     borderopacity="1.0"
     inkscape:pageopacity="0.0"
     inkscape:pageshadow="2"
     inkscape:zoom="11.313708"
     inkscape:cx="57.528361"
     inkscape:cy="72.214008"
     inkscape:document-units="px"
     inkscape:current-layer="SVGRoot"
     showgrid="false"
     inkscape:window-width="1853"
     inkscape:window-height="1016"
     inkscape:window-x="67"
     inkscape:window-y="27"
     inkscape:window-maximized="1"
     inkscape:grid-bbox="true" />
  <defs
     id="defs10" />
  <metadata
     id="metadata13">
    <rdf:RDF>
      <cc:Work
         rdf:about="">
        <dc:format>image/svg+xml</dc:format>
        <dc:type
           rdf:resource="http://purl.org/dc/dcmitype/StillImage" />
        <dc:title />
      </cc:Work>
    </rdf:RDF>
  </metadata>
  <g
     inkscape:groupmode="layer"
     id="layer2"
     inkscape:label="Background fill">
    <path
       style="fill:#e20613;fill-opacity:1;stroke-width:1.65043187"
       d="m 79.814503,38.139639 4.107498,-0.200521 1.534357,22.669897 -11.908774,-1.20816 z"
       id="rect37"
       inkscape:connector-curvature="0"
       sodipodi:nodetypes="ccccc" />
    <path
       style="fill:#e20613;fill-opacity:1;stroke-width:1.66749394"
       d="m 42.426154,59.703996 16.429997,0.284922 0.152483,25.78558 -16.568185,0.08903 z"
       id="rect37-3"
       inkscape:connector-curvature="0"
       sodipodi:nodetypes="ccccc" />
  </g>
  <g
     id="layer1"
     inkscape:groupmode="layer"
     inkscape:label="Layer 1"
     style="display:inline">
    <g
       aria-label="BA"
       style="font-style:normal;font-weight:normal;font-size:40px;line-height:1.25;font-family:sans-serif;letter-spacing:-10.02999973px;word-spacing:0px;fill:#000000;fill-opacity:1;stroke:none"
       id="text28"
       transform="matrix(1.2198606,0,0,1.8335388,11.872457,10.472444)">
      <path
         d="m 25.871094,29.574219 v 10.683593 h 6.328125 c 2.122395,0 3.691406,-0.436198 4.707031,-1.308593 1.028646,-0.885417 1.542969,-2.233073 1.542969,-4.042969 0,-1.822917 -0.514323,-3.164063 -1.542969,-4.023438 -1.015625,-0.872395 -2.584636,-1.308593 -4.707031,-1.308593 z m 0,-11.992188 v 8.789063 h 5.839843 c 1.927083,0 3.359375,-0.358073 4.296875,-1.074219 0.950521,-0.729167 1.425782,-1.835938 1.425782,-3.320313 0,-1.471354 -0.475261,-2.571614 -1.425782,-3.300781 -0.9375,-0.729167 -2.369792,-1.09375 -4.296875,-1.09375 z m -3.945313,-3.242187 h 10.078125 c 3.007813,0 5.325521,0.625 6.953125,1.875 1.627604,1.25 2.441406,3.027344 2.441406,5.332031 0,1.783854 -0.416667,3.203125 -1.25,4.257812 -0.833333,1.054688 -2.057292,1.71224 -3.671875,1.972657 1.940105,0.416667 3.444011,1.289062 4.511719,2.617187 1.080729,1.315104 1.058594,2.649739 1.058594,4.628906 0,1.302083 -0.221354,2.456055 -0.664063,3.461914 C 40.940104,39.491211 35.704376,43.5 35.704376,43.5 c 0,0 -0.04162,0 -3.309845,0 h -10.46875 z"
         id="path30"
         inkscape:connector-curvature="0"
         sodipodi:nodetypes="ccscscscccscscsccssssccsscscc" />
      <path
         d="m 59.063751,18.226562 c -39.375834,73.182292 -19.687917,36.591146 0,0 z m -2.857397,-3.886718 h 6.152034 L 62.423126,43.5 H 58.321564 V 18.253865 L 39.864532,43.5 h -4.160156 z"
         id="path32"
         inkscape:connector-curvature="0"
         sodipodi:nodetypes="cccccccccc" />
    </g>
    <path
       style="stroke-width:5.17136574"
       d="m 45.57111,58.832025 h 39.202965 v 5.787106 H 45.57111 Z"
       id="rect35"
       inkscape:connector-curvature="0" />
  </g>
</svg>
