<?xml version="1.0" encoding="UTF-8" standalone="no"?>
<!-- Created with Inkscape (http://www.inkscape.org/) -->

<svg
   xmlns:dc="http://purl.org/dc/elements/1.1/"
   xmlns:cc="http://creativecommons.org/ns#"
   xmlns:rdf="http://www.w3.org/1999/02/22-rdf-syntax-ns#"
   xmlns:svg="http://www.w3.org/2000/svg"
   xmlns="http://www.w3.org/2000/svg"
   xmlns:sodipodi="http://sodipodi.sourceforge.net/DTD/sodipodi-0.dtd"
   xmlns:inkscape="http://www.inkscape.org/namespaces/inkscape"
   width="128px"
   height="128px"
   viewBox="0 0 128 128"
   version="1.1"
   id="SVGRoot"
   inkscape:version="0.92.3 (2405546, 2018-03-11)"
   sodipodi:docname="newicon_foreground.svg"
   inkscape:export-filename="/home/vinzenz/StudioProjects/CampusDualAndroid2/files/newicon_foreground.svg.png"
   inkscape:export-xdpi="384"
   inkscape:export-ydpi="384">
  <sodipodi:namedview
     id="base"
     pagecolor="#ffffff"
     bordercolor="#666666"
     borderopacity="1.0"
     inkscape:pageopacity="0.0"
     inkscape:pageshadow="2"
     inkscape:zoom="3.9999998"
     inkscape:cx="152.45128"
     inkscape:cy="80.613791"
     inkscape:document-units="px"
     inkscape:current-layer="layer3"
     showgrid="false"
     inkscape:window-width="1862"
     inkscape:window-height="1016"
     inkscape:window-x="58"
     inkscape:window-y="27"
     inkscape:window-maximized="1"
     inkscape:grid-bbox="true"
     inkscape:snap-others="false"
     inkscape:object-nodes="false"
     inkscape:snap-nodes="false"
     inkscape:measure-start="7.5,120.75"
     inkscape:measure-end="77.75,28.5" />
  <defs
     id="defs10">
    <marker
       inkscape:stockid="Arrow1Send"
       orient="auto"
       refY="0.0"
       refX="0.0"
       id="Arrow1Send"
       style="overflow:visible;"
       inkscape:isstock="true">
      <path
         id="path5832"
         d="M 0.0,0.0 L 5.0,-5.0 L -12.5,0.0 L 5.0,5.0 L 0.0,0.0 z "
         style="fill-rule:evenodd;stroke:#000000;stroke-width:1pt;stroke-opacity:1;fill:#000000;fill-opacity:1"
         transform="scale(0.2) rotate(180) translate(6,0)" />
    </marker>
    <marker
       inkscape:stockid="Arrow1Sstart"
       orient="auto"
       refY="0.0"
       refX="0.0"
       id="Arrow1Sstart"
       style="overflow:visible"
       inkscape:isstock="true">
      <path
         id="path5829"
         d="M 0.0,0.0 L 5.0,-5.0 L -12.5,0.0 L 5.0,5.0 L 0.0,0.0 z "
         style="fill-rule:evenodd;stroke:#000000;stroke-width:1pt;stroke-opacity:1;fill:#000000;fill-opacity:1"
         transform="scale(0.2) translate(6,0)" />
    </marker>
    <marker
       inkscape:stockid="Arrow1Mend"
       orient="auto"
       refY="0.0"
       refX="0.0"
       id="Arrow1Mend"
       style="overflow:visible;"
       inkscape:isstock="true">
      <path
         id="path5826"
         d="M 0.0,0.0 L 5.0,-5.0 L -12.5,0.0 L 5.0,5.0 L 0.0,0.0 z "
         style="fill-rule:evenodd;stroke:#000000;stroke-width:1pt;stroke-opacity:1;fill:#000000;fill-opacity:1"
         transform="scale(0.4) rotate(180) translate(10,0)" />
    </marker>
    <marker
       inkscape:stockid="Arrow1Mstart"
       orient="auto"
       refY="0.0"
       refX="0.0"
       id="Arrow1Mstart"
       style="overflow:visible"
       inkscape:isstock="true">
      <path
         id="path5823"
         d="M 0.0,0.0 L 5.0,-5.0 L -12.5,0.0 L 5.0,5.0 L 0.0,0.0 z "
         style="fill-rule:evenodd;stroke:#000000;stroke-width:1pt;stroke-opacity:1;fill:#000000;fill-opacity:1"
         transform="scale(0.4) translate(10,0)" />
    </marker>
    <marker
       inkscape:stockid="Arrow1Lend"
       orient="auto"
       refY="0.0"
       refX="0.0"
       id="Arrow1Lend"
       style="overflow:visible;"
       inkscape:isstock="true">
      <path
         id="path5820"
         d="M 0.0,0.0 L 5.0,-5.0 L -12.5,0.0 L 5.0,5.0 L 0.0,0.0 z "
         style="fill-rule:evenodd;stroke:#000000;stroke-width:1pt;stroke-opacity:1;fill:#000000;fill-opacity:1"
         transform="scale(0.8) rotate(180) translate(12.5,0)" />
    </marker>
    <marker
       inkscape:stockid="Arrow1Lstart"
       orient="auto"
       refY="0.0"
       refX="0.0"
       id="Arrow1Lstart"
       style="overflow:visible"
       inkscape:isstock="true">
      <path
         id="path5817"
         d="M 0.0,0.0 L 5.0,-5.0 L -12.5,0.0 L 5.0,5.0 L 0.0,0.0 z "
         style="fill-rule:evenodd;stroke:#000000;stroke-width:1pt;stroke-opacity:1;fill:#000000;fill-opacity:1"
         transform="scale(0.8) translate(12.5,0)" />
    </marker>
  </defs>
  <metadata
     id="metadata13">
    <rdf:RDF>
      <cc:Work
         rdf:about="">
        <dc:format>image/svg+xml</dc:format>
        <dc:type
           rdf:resource="http://purl.org/dc/dcmitype/StillImage" />
        <dc:title />
      </cc:Work>
    </rdf:RDF>
  </metadata>
  <g
     inkscape:groupmode="layer"
     id="layer2"
     inkscape:label="Background fill">
    <path
       style="fill:#e20613;fill-opacity:1;stroke-width:1.65043187"
       d="M 42.064502,40.764639 58.422,43.939118 57.331357,58.484015 42.172583,59.400855 Z"
       id="rect37"
       inkscape:connector-curvature="0"
       sodipodi:nodetypes="ccccc" />
    <path
       style="fill:#e20613;fill-opacity:1;stroke-width:1.66749394"
       d="m 42.426154,59.703996 16.78355,6.030165 -0.20107,20.040337 -16.568185,0.08903 z"
       id="rect37-3"
       inkscape:connector-curvature="0"
       sodipodi:nodetypes="ccccc" />
    <path
       style="display:inline;fill:#e20613;fill-opacity:1;stroke:none;stroke-width:0.37795275;stroke-miterlimit:4;stroke-dasharray:none;stroke-dashoffset:0;stroke-opacity:1"
       d="m 85.125006,39.75 -13.000001,18.374998 11.875003,2.25 C 85.715347,48.405323 85.125006,39.75 85.125006,39.75 Z"
       id="rect6094"
       inkscape:connector-curvature="0"
       sodipodi:nodetypes="cccc" />
  </g>
  <g
     inkscape:groupmode="layer"
     id="layer3"
     inkscape:label="Layer 2">
    <path
       style="display:inline;fill:#e20613;fill-opacity:1;stroke:#000000;stroke-width:0.73322835;stroke-miterlimit:4;stroke-dasharray:none;stroke-opacity:1;opacity:1"
       d="M -0.0878515,58.907137 128.52408,58.832027 v 5.787106 H -0.15071835 Z"
       id="rect35"
       inkscape:connector-curvature="0"
       sodipodi:nodetypes="ccccc" />
    <rect
       style="display:inline;fill:#e20613;fill-opacity:1;stroke:#000000;stroke-width:0.73322835;stroke-miterlimit:4;stroke-dasharray:none;stroke-opacity:1;opacity:1"
       id="rect5166"
       width="4.9046793"
       height="129.125"
       x="83.014526"
       y="0.12499437" />
    <rect
       style="display:inline;fill:#e20613;fill-opacity:1;stroke:#000000;stroke-width:0.73322835;stroke-miterlimit:4;stroke-dasharray:none;stroke-opacity:1;opacity:1"
       id="rect5166-3"
       width="4.7171793"
       height="51.5"
       x="38.610157"
       y="-1.5000045" />
    <rect
       style="display:inline;fill:#e20613;fill-opacity:1;stroke:#000000;stroke-width:0.73322835;stroke-miterlimit:4;stroke-dasharray:none;stroke-dashoffset:0;stroke-opacity:1;opacity:1"
       id="rect5166-3-7"
       width="4.7171793"
       height="51.5"
       x="38.65361"
       y="78.385147" />
    <rect
       style="display:inline;fill:#e20613;fill-opacity:1;stroke:#000000;stroke-width:0.73322835;stroke-miterlimit:4;stroke-dasharray:none;stroke-opacity:1;opacity:1"
       id="rect5166-3-5"
       width="5.8421793"
       height="51.5"
       x="84.338165"
       y="-48.730972"
       transform="rotate(90)" />
    <rect
       style="display:inline;fill:#e20613;fill-opacity:1;stroke:#000000;stroke-width:0.73322835;stroke-miterlimit:4;stroke-dasharray:none;stroke-opacity:1;opacity:1"
       id="rect5166-3-5-3"
       width="5.8421793"
       height="51.5"
       x="37.044109"
       y="-43.60445"
       transform="rotate(90)" />
    <rect
       style="display:inline;fill:#e20613;fill-opacity:1;stroke:#000000;stroke-width:0.73322855;stroke-miterlimit:4;stroke-dasharray:none;stroke-opacity:1;opacity:1"
       id="rect5166-5"
       width="4.9034142"
       height="51.446621"
       x="88.397575"
       y="-48.866604"
       transform="matrix(0.89502567,0.44601462,-0.44694091,0.89456348,0,0)" />
    <rect
       style="display:inline;fill:#e20613;fill-opacity:1;stroke:#000000;stroke-width:0.73322855;stroke-miterlimit:4;stroke-dasharray:none;stroke-opacity:1;opacity:1"
       id="rect5166-5-6"
       width="4.9034142"
       height="51.446621"
       x="89.315521"
       y="51.208599"
       transform="matrix(0.89502567,0.44601462,-0.44694091,0.89456348,0,0)" />
  </g>
  <g
     id="layer1"
     inkscape:groupmode="layer"
     inkscape:label="Layer 1"
     style="display:inline">
    <g
       aria-label="BA"
       style="font-style:normal;font-weight:normal;font-size:40px;line-height:1.25;font-family:sans-serif;letter-spacing:-10.02999973px;word-spacing:0px;fill:#000000;fill-opacity:1;stroke:none"
       id="text28"
       transform="matrix(1.2198606,0,0,1.8335388,11.872457,10.472444)">
      <path
         d="m 25.871094,29.574219 v 10.683593 h 6.328125 c 2.122395,0 3.691406,-0.436198 4.707031,-1.308593 1.028646,-0.885417 1.542969,-2.233073 1.542969,-4.042969 0,-1.822917 -0.514323,-3.164063 -1.542969,-4.023438 -1.015625,-0.872395 -2.584636,-1.308593 -4.707031,-1.308593 z m 0,-11.992188 v 8.789063 h 5.839843 c 1.927083,0 3.359375,-0.358073 4.296875,-1.074219 0.950521,-0.729167 1.425782,-1.835938 1.425782,-3.320313 0,-1.471354 -0.475261,-2.571614 -1.425782,-3.300781 -0.9375,-0.729167 -2.369792,-1.09375 -4.296875,-1.09375 z m -3.945313,-3.242187 h 10.078125 c 3.007813,0 5.325521,0.625 6.953125,1.875 1.627604,1.25 2.441406,3.027344 2.441406,5.332031 0,1.783854 -0.416667,3.203125 -1.25,4.257812 -0.833333,1.054688 -2.057292,1.71224 -3.671875,1.972657 1.940105,0.416667 3.444011,1.289062 4.511719,2.617187 1.080729,1.315104 1.058594,2.649739 1.058594,4.628906 0,1.302083 -0.221354,2.456055 -0.664063,3.461914 C 40.940104,39.491211 35.704376,43.5 35.704376,43.5 c 0,0 -0.04162,0 -3.309845,0 h -10.46875 z"
         id="path30"
         inkscape:connector-curvature="0"
         sodipodi:nodetypes="ccscscscccscscsccssssccsscscc" />
      <path
         d="m 59.063751,18.226562 c -39.375834,73.182292 -19.687917,36.591146 0,0 z m -2.857397,-3.886718 h 6.152034 l 0.06474,29.501027 -4.101562,4e-6 V 18.253869 l -9.228516,12.623068 -9.109196,12.394118 -4.484418,0.0926 z"
         id="path32"
         inkscape:connector-curvature="0"
         sodipodi:nodetypes="ccccccccccc" />
    </g>
    <path
       style="fill:#000000;fill-opacity:1;stroke:#000000;stroke-width:0.38551182;stroke-miterlimit:4;stroke-dasharray:none;stroke-opacity:1"
       d="M 70.375,59.249996 84.147748,59.073219 84.059359,64.426773 70.375,64.249996 Z"
       id="rect6091"
       inkscape:connector-curvature="0"
       sodipodi:nodetypes="ccccc" />
  </g>
</svg>
