<?xml version="1.0" encoding="UTF-8" standalone="no"?>
<!-- Created with Inkscape (http://www.inkscape.org/) -->

<svg
   xmlns:dc="http://purl.org/dc/elements/1.1/"
   xmlns:cc="http://creativecommons.org/ns#"
   xmlns:rdf="http://www.w3.org/1999/02/22-rdf-syntax-ns#"
   xmlns:svg="http://www.w3.org/2000/svg"
   xmlns="http://www.w3.org/2000/svg"
   xmlns:sodipodi="http://sodipodi.sourceforge.net/DTD/sodipodi-0.dtd"
   xmlns:inkscape="http://www.inkscape.org/namespaces/inkscape"
   width="108px"
   height="108px"
   viewBox="0 0 108 108"
   version="1.1"
   id="SVGRoot"
   sodipodi:docname="newicon2_foreground.svg"
   inkscape:version="0.92.3 (2405546, 2018-03-11)">
  <sodipodi:namedview
     id="base"
     pagecolor="#ffffff"
     bordercolor="#666666"
     borderopacity="1.0"
     inkscape:pageopacity="0.0"
     inkscape:pageshadow="2"
     inkscape:zoom="6.7044198"
     inkscape:cx="84.971995"
     inkscape:cy="48.19808"
     inkscape:document-units="px"
     inkscape:current-layer="layer2"
     showgrid="false"
     inkscape:window-width="1862"
     inkscape:window-height="1016"
     inkscape:window-x="58"
     inkscape:window-y="27"
     inkscape:window-maximized="1"
     inkscape:grid-bbox="true"
     inkscape:object-nodes="false"
     inkscape:snap-others="false"
     inkscape:object-paths="true"
     inkscape:snap-nodes="false"
     inkscape:measure-start="137.67,36.8414"
     inkscape:measure-end="137.223,38.0346" />
  <defs
     id="defs815" />
  <metadata
     id="metadata818">
    <rdf:RDF>
      <cc:Work
         rdf:about="">
        <dc:format>image/svg+xml</dc:format>
        <dc:type
           rdf:resource="http://purl.org/dc/dcmitype/StillImage" />
        <dc:title></dc:title>
      </cc:Work>
    </rdf:RDF>
  </metadata>
  <g
     inkscape:groupmode="layer"
     id="layer2"
     inkscape:label="Shadow"
     style="display:inline">
    <g
       aria-label="A"
       transform="matrix(0.96970215,0,0,1.0312445,-2.0881745,2.2373298)"
       style="font-style:normal;font-variant:normal;font-weight:bold;font-stretch:normal;font-size:46.66666794px;line-height:1.25;font-family:'Dancing Script';-inkscape-font-specification:'Dancing Script, Bold';font-variant-ligatures:normal;font-variant-caps:normal;font-variant-numeric:normal;font-feature-settings:normal;text-align:start;letter-spacing:0px;word-spacing:0px;writing-mode:lr-tb;text-anchor:start;fill:#ff5252;fill-opacity:1;stroke:none;stroke-width:1.06924987"
       id="text1376-0">
      <path
         d="m 58.582511,68.956858 q -2.146667,-1.12 -2.146667,-2.893333 0,-1.773333 1.866667,-5.46 1.866667,-3.733334 4.993334,-8.54 -2.8,-0.186667 -6.860001,-0.186667 1.12,-3.033334 5.413334,-3.033334 0.933333,0 3.453333,0.28 5.226667,-7.56 9.753334,-12.74 4.526667,-5.18 6.02,-5.18 1.213333,0 3.173334,1.82 -0.933334,0.7 -2.753334,5.833334 -1.773333,5.086666 -3.173333,11.2 -1.353334,6.066667 -1.353334,9.8 0,1.866667 0.373334,2.8 0.42,0.886667 1.26,0.886667 1.166666,0 2.753333,-1.68 1.586667,-1.726667 3.453334,-5.273334 l 0.84,0.886667 q -1.493334,3.966667 -3.826667,6.393334 -2.333334,2.38 -4.853334,2.38 -2.146666,0 -3.126666,-1.866667 -0.98,-1.866667 -0.98,-5.366667 0,-2.286667 0.606666,-5.786667 -2.38,-0.373333 -6.673333,-0.886666 -4.34,7.7 -8.213334,16.613333 z M 73.935845,50.943525 q 0.84,-3.920001 2.193333,-8.120001 1.353334,-4.2 2.753334,-7.513333 -2.053334,1.633333 -4.806667,5.413333 -2.753334,3.78 -5.786667,8.96 l 3.5,0.746667 q 1.4,0.373333 2.146667,0.513334 z"
         style="font-style:normal;font-variant:normal;font-weight:bold;font-stretch:normal;font-size:46.66666794px;font-family:'Dancing Script';-inkscape-font-specification:'Dancing Script, Bold';font-variant-ligatures:normal;font-variant-caps:normal;font-variant-numeric:normal;font-feature-settings:normal;text-align:start;writing-mode:lr-tb;text-anchor:start;fill:#ff5252;fill-opacity:1;stroke-width:1.06924987"
         id="path2335"
         inkscape:connector-curvature="0" />
    </g>
    <g
       aria-label="B"
       transform="matrix(0.96970215,0,0,1.0312445,-2.0881745,2.2373298)"
       style="font-style:normal;font-variant:normal;font-weight:normal;font-stretch:normal;font-size:48px;line-height:1.25;font-family:Roboto;-inkscape-font-specification:'Roboto, Normal';font-variant-ligatures:normal;font-variant-caps:normal;font-variant-numeric:normal;font-feature-settings:normal;text-align:start;letter-spacing:0px;word-spacing:0px;writing-mode:lr-tb;text-anchor:start;display:inline;fill:#556efc;fill-opacity:1;stroke:none;stroke-width:1.06924987"
       id="text2254">
      <path
         d="m 34.047766,67.275002 v -34.125 h 11.15625 q 5.554687,0 8.34375,2.296875 2.8125,2.296875 2.8125,6.796875 0,2.390625 -1.359375,4.242187 -1.359375,1.828125 -3.703125,2.835938 2.765625,0.773437 4.359375,2.953125 1.617187,2.15625 1.617187,5.15625 0,4.59375 -2.976562,7.21875 -2.976563,2.625 -8.414063,2.625 z m 4.5,-15.960938 v 12.28125 h 7.429687 q 3.140625,0 4.945313,-1.617187 1.828125,-1.640625 1.828125,-4.5 0,-6.164063 -6.703125,-6.164063 z m 0,-3.609375 h 6.796875 q 2.953125,0 4.710937,-1.476562 1.78125,-1.476563 1.78125,-4.007813 0,-2.8125 -1.640625,-4.078125 -1.640625,-1.289062 -4.992187,-1.289062 h -6.65625 z"
         style="font-style:normal;font-variant:normal;font-weight:normal;font-stretch:normal;font-size:48px;font-family:Roboto;-inkscape-font-specification:'Roboto, Normal';font-variant-ligatures:normal;font-variant-caps:normal;font-variant-numeric:normal;font-feature-settings:normal;text-align:start;writing-mode:lr-tb;text-anchor:start;fill:#556efc;fill-opacity:1;stroke-width:1.06924987"
         id="path2332"
         inkscape:connector-curvature="0" />
    </g>
  </g>
  <g
     id="layer1"
     inkscape:groupmode="layer"
     inkscape:label="Layer 1"
     style="display:inline">
    <g
       aria-label="B"
       transform="matrix(0.96970215,0,0,1.0312445,-2.0881745,2.2373298)"
       style="font-style:normal;font-variant:normal;font-weight:normal;font-stretch:normal;font-size:45.62133026px;line-height:1.25;font-family:Roboto;-inkscape-font-specification:'Roboto, Normal';font-variant-ligatures:normal;font-variant-caps:normal;font-variant-numeric:normal;font-feature-settings:normal;text-align:start;letter-spacing:0px;word-spacing:0px;writing-mode:lr-tb;text-anchor:start;display:inline;fill:#000000;fill-opacity:1;stroke:none;stroke-width:0.40412596;stroke-miterlimit:4;stroke-dasharray:none;stroke-opacity:1"
       id="text2254-4">
      <path
         d="M 31.941185,68.455925 V 36.022011 h 10.603396 q 5.279421,0 7.93027,2.183051 2.673125,2.183052 2.673125,6.460052 0,2.272156 -1.292011,4.031963 -1.29201,1.737531 -3.519614,2.695401 2.628573,0.73511 4.143343,2.806781 1.537047,2.049396 1.537047,4.900729 0,4.366104 -2.829057,6.86102 -2.829057,2.494917 -7.997098,2.494917 z m 4.277,-15.169983 v 11.672645 h 7.061505 q 2.984989,0 4.700244,-1.537047 1.737531,-1.559323 1.737531,-4.277 0,-5.858598 -6.370947,-5.858598 z m 0,-3.430511 h 6.460052 q 2.806781,0 4.477484,-1.40339 1.692979,-1.403391 1.692979,-3.809203 0,-2.673125 -1.559323,-3.876031 -1.559323,-1.225182 -4.744796,-1.225182 h -6.326396 z"
         style="font-style:normal;font-variant:normal;font-weight:normal;font-stretch:normal;font-size:45.62133026px;font-family:Roboto;-inkscape-font-specification:'Roboto, Normal';font-variant-ligatures:normal;font-variant-caps:normal;font-variant-numeric:normal;font-feature-settings:normal;text-align:start;writing-mode:lr-tb;text-anchor:start;stroke:none;stroke-width:0.40412596;stroke-miterlimit:4;stroke-dasharray:none;stroke-opacity:1"
         id="path2329"
         inkscape:connector-curvature="0" />
    </g>
    <g
       aria-label="A"
       transform="matrix(0.96970215,0,0,1.0312445,-2.0881745,2.2373298)"
       style="font-style:normal;font-variant:normal;font-weight:bold;font-stretch:normal;font-size:42.76999664px;line-height:1.25;font-family:'Dancing Script';-inkscape-font-specification:'Dancing Script, Bold';font-variant-ligatures:normal;font-variant-caps:normal;font-variant-numeric:normal;font-feature-settings:normal;text-align:start;letter-spacing:0px;word-spacing:0px;writing-mode:lr-tb;text-anchor:start;display:inline;fill:#000000;fill-opacity:1;stroke:none;stroke-width:0.40412596;stroke-miterlimit:4;stroke-dasharray:none;stroke-opacity:1"
       id="text1376">
      <path
         d="m 57.167283,69.469433 q -1.96742,-1.02648 -1.96742,-2.651739 0,-1.62526 1.7108,-5.00409 1.7108,-3.4216 4.57639,-7.826909 -2.5662,-0.17108 -6.28719,-0.17108 1.02648,-2.78005 4.96132,-2.78005 0.8554,0 3.16498,0.25662 4.790239,-6.92874 8.938929,-11.676209 4.14869,-4.74747 5.51733,-4.74747 1.11202,0 2.908359,1.66803 -0.855399,0.64155 -2.523429,5.346249 -1.62526,4.66193 -2.90836,10.2648 -1.24033,5.560099 -1.24033,8.981699 0,1.7108 0.34216,2.5662 0.38493,0.81263 1.15479,0.81263 1.06925,0 2.52343,-1.53972 1.45418,-1.58249 3.164979,-4.83301 l 0.76986,0.81263 q -1.36864,3.63545 -3.507139,5.85949 -2.1385,2.18127 -4.44808,2.18127 -1.96742,0 -2.86559,-1.7108 -0.89817,-1.7108 -0.89817,-4.91855 0,-2.09573 0.55601,-5.30348 -2.18127,-0.34216 -6.116109,-0.812629 -3.97761,7.057049 -7.52752,15.226118 z M 71.238612,52.960215 q 0.76986,-3.59268 2.01019,-7.44198 1.24033,-3.8493 2.52343,-6.885969 -1.88188,1.49695 -4.40531,4.961319 -2.52343,3.46437 -5.303479,8.21184 l 3.207749,0.68432 q 1.2831,0.34216 1.96742,0.47047 z"
         style="stroke:none;stroke-width:0.40412596"
         id="path2326"
         inkscape:connector-curvature="0" />
    </g>
  </g>
</svg>
